<?xml version="1.0" encoding="utf-8" standalone="no"?>
<!DOCTYPE svg PUBLIC "-//W3C//DTD SVG 1.1//EN"
  "http://www.w3.org/Graphics/SVG/1.1/DTD/svg11.dtd">
<svg xmlns:xlink="http://www.w3.org/1999/xlink" width="720pt" height="864pt" viewBox="0 0 720 864" xmlns="http://www.w3.org/2000/svg" version="1.1">
 <metadata>
  <rdf:RDF xmlns:dc="http://purl.org/dc/elements/1.1/" xmlns:cc="http://creativecommons.org/ns#" xmlns:rdf="http://www.w3.org/1999/02/22-rdf-syntax-ns#">
   <cc:Work>
    <dc:type rdf:resource="http://purl.org/dc/dcmitype/StillImage"/>
    <dc:date>2023-06-11T10:35:57.273411</dc:date>
    <dc:format>image/svg+xml</dc:format>
    <dc:creator>
     <cc:Agent>
      <dc:title>Matplotlib v3.7.0, https://matplotlib.org/</dc:title>
     </cc:Agent>
    </dc:creator>
   </cc:Work>
  </rdf:RDF>
 </metadata>
 <defs>
  <style type="text/css">*{stroke-linejoin: round; stroke-linecap: butt}</style>
 </defs>
 <g id="figure_1">
  <g id="patch_1">
   <path d="M 0 864 
L 720 864 
L 720 0 
L 0 0 
z
" style="fill: #ffffff"/>
  </g>
  <g id="axes_1">
   <g id="patch_2">
    <path d="M 21.384 842.616 
L 698.616 842.616 
L 698.616 73.944 
L 21.384 73.944 
z
" style="fill: #ffffff"/>
   </g>
   <g id="matplotlib.axis_1"/>
   <g id="matplotlib.axis_2"/>
   <g id="PathCollection_1">
    <path d="M 354.625143 197.469148 
C 367.885298 197.469148 380.604136 192.200832 389.980482 182.824487 
C 399.356827 173.448141 404.625143 160.729303 404.625143 147.469148 
C 404.625143 134.208993 399.356827 121.490154 389.980482 112.113809 
C 380.604136 102.737463 367.885298 97.469148 354.625143 97.469148 
C 341.364988 97.469148 328.646149 102.737463 319.269804 112.113809 
C 309.893458 121.490154 304.625143 134.208993 304.625143 147.469148 
C 304.625143 160.729303 309.893458 173.448141 319.269804 182.824487 
C 328.646149 192.200832 341.364988 197.469148 354.625143 197.469148 
z
" clip-path="url(#pb0ab1bfe92)" style="fill: #d57d6b; stroke: #ffffff; stroke-width: 1.385641"/>
    <path d="M 354.625143 278.513326 
C 363.67511 278.513326 372.355632 274.917736 378.754925 268.518443 
C 385.154218 262.11915 388.749808 253.438628 388.749808 244.388661 
C 388.749808 235.338694 385.154218 226.658172 378.754925 220.258879 
C 372.355632 213.859586 363.67511 210.263996 354.625143 210.263996 
C 345.575176 210.263996 336.894654 213.859586 330.495361 220.258879 
C 324.096068 226.658172 320.500478 235.338694 320.500478 244.388661 
C 320.500478 253.438628 324.096068 262.11915 330.495361 268.518443 
C 336.894654 274.917736 345.575176 278.513326 354.625143 278.513326 
z
" clip-path="url(#pb0ab1bfe92)" style="fill: #d57d6b; fill-opacity: 0.95; stroke: #ffffff; stroke-opacity: 0.95; stroke-width: 1.385641"/>
    <path d="M 354.625143 353.799032 
C 363.255693 353.799032 371.533919 350.370078 377.63664 344.267358 
C 383.73936 338.164637 387.168314 329.886411 387.168314 321.255861 
C 387.168314 312.625311 383.73936 304.347084 377.63664 298.244364 
C 371.533919 292.141644 363.255693 288.71269 354.625143 288.71269 
C 345.994593 288.71269 337.716366 292.141644 331.613646 298.244364 
C 325.510926 304.347084 322.081972 312.625311 322.081972 321.255861 
C 322.081972 329.886411 325.510926 338.164637 331.613646 344.267358 
C 337.716366 350.370078 345.994593 353.799032 354.625143 353.799032 
z
" clip-path="url(#pb0ab1bfe92)" style="fill: #d57d6b; fill-opacity: 0.9; stroke: #ffffff; stroke-opacity: 0.9; stroke-width: 1.385641"/>
    <path d="M 354.625143 425.661799 
C 362.814824 425.661799 370.67018 422.408004 376.461159 416.617025 
C 382.252138 410.826046 385.505933 402.97069 385.505933 394.781009 
C 385.505933 386.591327 382.252138 378.735972 376.461159 372.944993 
C 370.67018 367.154014 362.814824 363.900219 354.625143 363.900219 
C 346.435462 363.900219 338.580106 367.154014 332.789127 372.944993 
C 326.998148 378.735972 323.744353 386.591327 323.744353 394.781009 
C 323.744353 402.97069 326.998148 410.826046 332.789127 416.617025 
C 338.580106 422.408004 346.435462 425.661799 354.625143 425.661799 
z
" clip-path="url(#pb0ab1bfe92)" style="fill: #d57d6b; fill-opacity: 0.8; stroke: #ffffff; stroke-opacity: 0.8; stroke-width: 1.385641"/>
    <path d="M 354.625143 499.186946 
C 362.814824 499.186946 370.67018 495.933152 376.461159 490.142173 
C 382.252138 484.351193 385.505933 476.495838 385.505933 468.306157 
C 385.505933 460.116475 382.252138 452.26112 376.461159 446.470141 
C 370.67018 440.679161 362.814824 437.425367 354.625143 437.425367 
C 346.435462 437.425367 338.580106 440.679161 332.789127 446.470141 
C 326.998148 452.26112 323.744353 460.116475 323.744353 468.306157 
C 323.744353 476.495838 326.998148 484.351193 332.789127 490.142173 
C 338.580106 495.933152 346.435462 499.186946 354.625143 499.186946 
z
" clip-path="url(#pb0ab1bfe92)" style="fill: #d57d6b; fill-opacity: 0.8; stroke: #ffffff; stroke-opacity: 0.8; stroke-width: 1.385641"/>
    <path d="M 354.625143 557.050322 
C 361.320241 557.050322 367.742027 554.390332 372.476177 549.656182 
C 377.210327 544.922032 379.870317 538.500246 379.870317 531.805148 
C 379.870317 525.110049 377.210327 518.688263 372.476177 513.954114 
C 367.742027 509.219964 361.320241 506.559973 354.625143 506.559973 
C 347.930044 506.559973 341.508258 509.219964 336.774109 513.954114 
C 332.039959 518.688263 329.379968 525.110049 329.379968 531.805148 
C 329.379968 538.500246 332.039959 544.922032 336.774109 549.656182 
C 341.508258 554.390332 347.930044 557.050322 354.625143 557.050322 
z
" clip-path="url(#pb0ab1bfe92)" style="fill: #d57d6b; fill-opacity: 0.75; stroke: #ffffff; stroke-opacity: 0.75; stroke-width: 1.385641"/>
    <path d="M 354.625143 609.570859 
C 360.535895 609.570859 366.205355 607.222492 370.384888 603.042959 
C 374.564421 598.863426 376.912788 593.193967 376.912788 587.283214 
C 376.912788 581.372461 374.564421 575.703002 370.384888 571.523469 
C 366.205355 567.343936 360.535895 564.995569 354.625143 564.995569 
C 348.71439 564.995569 343.044931 567.343936 338.865398 571.523469 
C 334.685865 575.703002 332.337498 581.372461 332.337498 587.283214 
C 332.337498 593.193967 334.685865 598.863426 338.865398 603.042959 
C 343.044931 607.222492 348.71439 609.570859 354.625143 609.570859 
z
" clip-path="url(#pb0ab1bfe92)" style="fill: #d57d6b; fill-opacity: 0.7; stroke: #ffffff; stroke-opacity: 0.7; stroke-width: 1.385641"/>
    <path d="M 354.625143 642.157262 
C 358.18751 642.157262 361.604452 640.741919 364.123426 638.222944 
C 366.642401 635.70397 368.057744 632.287028 368.057744 628.724661 
C 368.057744 625.162293 366.642401 621.745352 364.123426 619.226377 
C 361.604452 616.707403 358.18751 615.292059 354.625143 615.292059 
C 351.062775 615.292059 347.645834 616.707403 345.126859 619.226377 
C 342.607885 621.745352 341.192541 625.162293 341.192541 628.724661 
C 341.192541 632.287028 342.607885 635.70397 345.126859 638.222944 
C 347.645834 640.741919 351.062775 642.157262 354.625143 642.157262 
z
" clip-path="url(#pb0ab1bfe92)" style="fill: #d57d6b; fill-opacity: 0.65; stroke: #ffffff; stroke-opacity: 0.65; stroke-width: 1.385641"/>
    <path d="M 354.625143 670.856755 
C 357.821801 670.856755 360.887963 669.586709 363.148342 667.32633 
C 365.408721 665.065951 366.678767 661.999789 366.678767 658.80313 
C 366.678767 655.606472 365.408721 652.54031 363.148342 650.279931 
C 360.887963 648.019552 357.821801 646.749506 354.625143 646.749506 
C 351.428484 646.749506 348.362322 648.019552 346.101943 650.279931 
C 343.841565 652.54031 342.571519 655.606472 342.571519 658.80313 
C 342.571519 661.999789 343.841565 665.065951 346.101943 667.32633 
C 348.362322 669.586709 351.428484 670.856755 354.625143 670.856755 
z
" clip-path="url(#pb0ab1bfe92)" style="fill: #d57d6b; fill-opacity: 0.6; stroke: #ffffff; stroke-opacity: 0.6; stroke-width: 1.385641"/>
    <path d="M 354.625143 696.034543 
C 357.408448 696.034543 360.078131 694.928724 362.046225 692.96063 
C 364.014319 690.992536 365.120138 688.322853 365.120138 685.539548 
C 365.120138 682.756243 364.014319 680.086559 362.046225 678.118465 
C 360.078131 676.150371 357.408448 675.044552 354.625143 675.044552 
C 351.841838 675.044552 349.172155 676.150371 347.20406 678.118465 
C 345.235966 680.086559 344.130148 682.756243 344.130148 685.539548 
C 344.130148 688.322853 345.235966 690.992536 347.20406 692.96063 
C 349.172155 694.928724 351.841838 696.034543 354.625143 696.034543 
z
" clip-path="url(#pb0ab1bfe92)" style="fill: #d57d6b; fill-opacity: 0.55; stroke: #ffffff; stroke-opacity: 0.55; stroke-width: 1.385641"/>
    <path d="M 354.625143 717.594167 
C 356.921869 717.594167 359.124837 716.681668 360.748867 715.057637 
C 362.372898 713.433607 363.285397 711.230639 363.285397 708.933913 
C 363.285397 706.637187 362.372898 704.434219 360.748867 702.810189 
C 359.124837 701.186158 356.921869 700.273659 354.625143 700.273659 
C 352.328417 700.273659 350.125449 701.186158 348.501419 702.810189 
C 346.877388 704.434219 345.964889 706.637187 345.964889 708.933913 
C 345.964889 711.230639 346.877388 713.433607 348.501419 715.057637 
C 350.125449 716.681668 352.328417 717.594167 354.625143 717.594167 
z
" clip-path="url(#pb0ab1bfe92)" style="fill: #d57d6b; fill-opacity: 0.5; stroke: #ffffff; stroke-opacity: 0.5; stroke-width: 1.385641"/>
    <path d="M 354.625143 737.64648 
C 356.921869 737.64648 359.124837 736.733981 360.748867 735.10995 
C 362.372898 733.48592 363.285397 731.282952 363.285397 728.986226 
C 363.285397 726.6895 362.372898 724.486532 360.748867 722.862502 
C 359.124837 721.238471 356.921869 720.325972 354.625143 720.325972 
C 352.328417 720.325972 350.125449 721.238471 348.501419 722.862502 
C 346.877388 724.486532 345.964889 726.6895 345.964889 728.986226 
C 345.964889 731.282952 346.877388 733.48592 348.501419 735.10995 
C 350.125449 736.733981 352.328417 737.64648 354.625143 737.64648 
z
" clip-path="url(#pb0ab1bfe92)" style="fill: #d57d6b; fill-opacity: 0.5; stroke: #ffffff; stroke-opacity: 0.5; stroke-width: 1.385641"/>
    <path d="M 354.625143 757.698793 
C 356.921869 757.698793 359.124837 756.786294 360.748867 755.162263 
C 362.372898 753.538233 363.285397 751.335265 363.285397 749.038539 
C 363.285397 746.741813 362.372898 744.538845 360.748867 742.914815 
C 359.124837 741.290784 356.921869 740.378285 354.625143 740.378285 
C 352.328417 740.378285 350.125449 741.290784 348.501419 742.914815 
C 346.877388 744.538845 345.964889 746.741813 345.964889 749.038539 
C 345.964889 751.335265 346.877388 753.538233 348.501419 755.162263 
C 350.125449 756.786294 352.328417 757.698793 354.625143 757.698793 
z
" clip-path="url(#pb0ab1bfe92)" style="fill: #d57d6b; fill-opacity: 0.5; stroke: #ffffff; stroke-opacity: 0.5; stroke-width: 1.385641"/>
    <path d="M 354.625143 777.751106 
C 356.921869 777.751106 359.124837 776.838607 360.748867 775.214577 
C 362.372898 773.590546 363.285397 771.387578 363.285397 769.090852 
C 363.285397 766.794126 362.372898 764.591158 360.748867 762.967128 
C 359.124837 761.343097 356.921869 760.430598 354.625143 760.430598 
C 352.328417 760.430598 350.125449 761.343097 348.501419 762.967128 
C 346.877388 764.591158 345.964889 766.794126 345.964889 769.090852 
C 345.964889 771.387578 346.877388 773.590546 348.501419 775.214577 
C 350.125449 776.838607 352.328417 777.751106 354.625143 777.751106 
z
" clip-path="url(#pb0ab1bfe92)" style="fill: #d57d6b; fill-opacity: 0.5; stroke: #ffffff; stroke-opacity: 0.5; stroke-width: 1.385641"/>
    <path d="M 354.625143 797.803419 
C 356.921869 797.803419 359.124837 796.89092 360.748867 795.26689 
C 362.372898 793.642859 363.285397 791.439891 363.285397 789.143165 
C 363.285397 786.846439 362.372898 784.643472 360.748867 783.019441 
C 359.124837 781.39541 356.921869 780.482911 354.625143 780.482911 
C 352.328417 780.482911 350.125449 781.39541 348.501419 783.019441 
C 346.877388 784.643472 345.964889 786.846439 345.964889 789.143165 
C 345.964889 791.439891 346.877388 793.642859 348.501419 795.26689 
C 350.125449 796.89092 352.328417 797.803419 354.625143 797.803419 
z
" clip-path="url(#pb0ab1bfe92)" style="fill: #d57d6b; fill-opacity: 0.5; stroke: #ffffff; stroke-opacity: 0.5; stroke-width: 1.385641"/>
    <path d="M 354.625143 817.855732 
C 356.921869 817.855732 359.124837 816.943233 360.748867 815.319203 
C 362.372898 813.695172 363.285397 811.492204 363.285397 809.195478 
C 363.285397 806.898752 362.372898 804.695785 360.748867 803.071754 
C 359.124837 801.447723 356.921869 800.535224 354.625143 800.535224 
C 352.328417 800.535224 350.125449 801.447723 348.501419 803.071754 
C 346.877388 804.695785 345.964889 806.898752 345.964889 809.195478 
C 345.964889 811.492204 346.877388 813.695172 348.501419 815.319203 
C 350.125449 816.943233 352.328417 817.855732 354.625143 817.855732 
z
" clip-path="url(#pb0ab1bfe92)" style="fill: #d57d6b; fill-opacity: 0.5; stroke: #ffffff; stroke-opacity: 0.5; stroke-width: 1.385641"/>
    <path d="M 354.625143 837.908045 
C 356.921869 837.908045 359.124837 836.995546 360.748867 835.371516 
C 362.372898 833.747485 363.285397 831.544518 363.285397 829.247791 
C 363.285397 826.951065 362.372898 824.748098 360.748867 823.124067 
C 359.124837 821.500036 356.921869 820.587537 354.625143 820.587537 
C 352.328417 820.587537 350.125449 821.500036 348.501419 823.124067 
C 346.877388 824.748098 345.964889 826.951065 345.964889 829.247791 
C 345.964889 831.544518 346.877388 833.747485 348.501419 835.371516 
C 350.125449 836.995546 352.328417 837.908045 354.625143 837.908045 
z
" clip-path="url(#pb0ab1bfe92)" style="fill: #d57d6b; fill-opacity: 0.5; stroke: #ffffff; stroke-opacity: 0.5; stroke-width: 1.385641"/>
   </g>
   <g id="patch_3">
    <path d="M 21.384 842.616 
L 21.384 73.944 
" style="fill: none; stroke: #ffffff; stroke-width: 1.875; stroke-linejoin: miter; stroke-linecap: square"/>
   </g>
   <g id="patch_4">
    <path d="M 698.616 842.616 
L 698.616 73.944 
" style="fill: none; stroke: #ffffff; stroke-width: 1.875; stroke-linejoin: miter; stroke-linecap: square"/>
   </g>
   <g id="patch_5">
    <path d="M 21.384 842.616 
L 698.616 842.616 
" style="fill: none; stroke: #ffffff; stroke-width: 1.875; stroke-linejoin: miter; stroke-linecap: square"/>
   </g>
   <g id="patch_6">
    <path d="M 21.384 73.944 
L 698.616 73.944 
" style="fill: none; stroke: #ffffff; stroke-width: 1.875; stroke-linejoin: miter; stroke-linecap: square"/>
   </g>
   <g id="text_1">
    <!-- 70 -->
    <g style="fill: #ffffff" transform="translate(341.725486 157.495304) scale(0.24 -0.24)">
     <defs>
      <path id="Poppins-SemiBold-37" d="M 3309 3987 
L 1606 0 
L 698 0 
L 2413 3885 
L 224 3885 
L 224 4653 
L 3309 4653 
L 3309 3987 
z
" transform="scale(0.015625)"/>
      <path id="Poppins-SemiBold-30" d="M 339 2394 
Q 339 3501 739 4128 
Q 1139 4755 2067 4755 
Q 2995 4755 3395 4128 
Q 3795 3501 3795 2394 
Q 3795 1280 3395 646 
Q 2995 13 2067 13 
Q 1139 13 739 646 
Q 339 1280 339 2394 
z
M 2912 2394 
Q 2912 2867 2851 3190 
Q 2790 3514 2608 3718 
Q 2426 3923 2067 3923 
Q 1709 3923 1526 3718 
Q 1344 3514 1283 3190 
Q 1222 2867 1222 2394 
Q 1222 1907 1280 1577 
Q 1338 1248 1523 1046 
Q 1709 845 2067 845 
Q 2426 845 2611 1046 
Q 2797 1248 2854 1577 
Q 2912 1907 2912 2394 
z
" transform="scale(0.015625)"/>
     </defs>
     <use xlink:href="#Poppins-SemiBold-37"/>
     <use xlink:href="#Poppins-SemiBold-30" x="54.799988"/>
    </g>
   </g>
   <g id="text_2">
    <!-- Hanfstaengl -->
    <g style="fill: #262626" transform="translate(413.748571 154.153252) scale(0.16 -0.16)">
     <defs>
      <path id="Poppins-Medium-48" d="M 4032 4448 
L 4032 0 
L 3302 0 
L 3302 1946 
L 1210 1946 
L 1210 0 
L 480 0 
L 480 4448 
L 1210 4448 
L 1210 2541 
L 3302 2541 
L 3302 4448 
L 4032 4448 
z
" transform="scale(0.015625)"/>
      <path id="Poppins-Medium-61" d="M 237 1779 
Q 237 2310 457 2720 
Q 678 3130 1059 3357 
Q 1440 3584 1901 3584 
Q 2317 3584 2627 3421 
Q 2938 3258 3123 3014 
L 3123 3526 
L 3859 3526 
L 3859 0 
L 3123 0 
L 3123 525 
Q 2938 275 2618 108 
Q 2298 -58 1888 -58 
Q 1434 -58 1056 176 
Q 678 410 457 829 
Q 237 1248 237 1779 
z
M 3123 1766 
Q 3123 2131 2972 2400 
Q 2822 2669 2579 2809 
Q 2336 2950 2054 2950 
Q 1773 2950 1529 2812 
Q 1286 2675 1136 2409 
Q 986 2144 986 1779 
Q 986 1414 1136 1139 
Q 1286 864 1532 720 
Q 1779 576 2054 576 
Q 2336 576 2579 717 
Q 2822 858 2972 1130 
Q 3123 1402 3123 1766 
z
" transform="scale(0.015625)"/>
      <path id="Poppins-Medium-6e" d="M 2259 3584 
Q 2675 3584 3004 3411 
Q 3334 3238 3520 2899 
Q 3706 2560 3706 2080 
L 3706 0 
L 2982 0 
L 2982 1971 
Q 2982 2445 2745 2697 
Q 2509 2950 2099 2950 
Q 1690 2950 1450 2697 
Q 1210 2445 1210 1971 
L 1210 0 
L 480 0 
L 480 3526 
L 1210 3526 
L 1210 3123 
Q 1389 3341 1667 3462 
Q 1946 3584 2259 3584 
z
" transform="scale(0.015625)"/>
      <path id="Poppins-Medium-66" d="M 1958 2931 
L 1306 2931 
L 1306 0 
L 570 0 
L 570 2931 
L 154 2931 
L 154 3526 
L 570 3526 
L 570 3776 
Q 570 4384 893 4662 
Q 1216 4941 1907 4941 
L 1907 4333 
Q 1574 4333 1440 4208 
Q 1306 4083 1306 3776 
L 1306 3526 
L 1958 3526 
L 1958 2931 
z
" transform="scale(0.015625)"/>
      <path id="Poppins-Medium-73" d="M 1760 -58 
Q 1344 -58 1014 92 
Q 685 243 493 502 
Q 301 762 288 1082 
L 1043 1082 
Q 1062 858 1257 707 
Q 1453 557 1747 557 
Q 2054 557 2224 675 
Q 2394 794 2394 979 
Q 2394 1178 2205 1274 
Q 2016 1370 1606 1485 
Q 1210 1594 960 1696 
Q 710 1798 528 2009 
Q 346 2221 346 2566 
Q 346 2848 512 3081 
Q 678 3315 988 3449 
Q 1299 3584 1702 3584 
Q 2304 3584 2672 3280 
Q 3040 2976 3066 2451 
L 2336 2451 
Q 2317 2688 2144 2829 
Q 1971 2970 1677 2970 
Q 1389 2970 1235 2861 
Q 1082 2752 1082 2573 
Q 1082 2432 1184 2336 
Q 1286 2240 1433 2185 
Q 1581 2131 1869 2048 
Q 2253 1946 2499 1840 
Q 2746 1734 2925 1529 
Q 3104 1325 3110 986 
Q 3110 685 2944 448 
Q 2778 211 2474 76 
Q 2170 -58 1760 -58 
z
" transform="scale(0.015625)"/>
      <path id="Poppins-Medium-74" d="M 1331 2931 
L 1331 979 
Q 1331 781 1424 694 
Q 1517 608 1741 608 
L 2189 608 
L 2189 0 
L 1613 0 
Q 1120 0 857 230 
Q 595 461 595 979 
L 595 2931 
L 179 2931 
L 179 3526 
L 595 3526 
L 595 4403 
L 1331 4403 
L 1331 3526 
L 2189 3526 
L 2189 2931 
L 1331 2931 
z
" transform="scale(0.015625)"/>
      <path id="Poppins-Medium-65" d="M 3712 1850 
Q 3712 1651 3686 1491 
L 992 1491 
Q 1024 1069 1305 813 
Q 1587 557 1997 557 
Q 2586 557 2829 1050 
L 3616 1050 
Q 3456 563 3037 252 
Q 2618 -58 1997 -58 
Q 1491 -58 1091 169 
Q 691 397 464 809 
Q 237 1222 237 1766 
Q 237 2310 457 2723 
Q 678 3136 1078 3360 
Q 1478 3584 1997 3584 
Q 2496 3584 2886 3366 
Q 3277 3149 3494 2755 
Q 3712 2362 3712 1850 
z
M 2950 2080 
Q 2944 2483 2662 2726 
Q 2381 2970 1965 2970 
Q 1587 2970 1318 2730 
Q 1050 2490 998 2080 
L 2950 2080 
z
" transform="scale(0.015625)"/>
      <path id="Poppins-Medium-67" d="M 1901 3584 
Q 2310 3584 2627 3421 
Q 2944 3258 3123 3014 
L 3123 3526 
L 3859 3526 
L 3859 -58 
Q 3859 -544 3654 -925 
Q 3450 -1306 3062 -1523 
Q 2675 -1741 2138 -1741 
Q 1421 -1741 947 -1405 
Q 474 -1069 410 -493 
L 1133 -493 
Q 1216 -768 1488 -937 
Q 1760 -1107 2138 -1107 
Q 2579 -1107 2851 -838 
Q 3123 -570 3123 -58 
L 3123 531 
Q 2938 282 2621 112 
Q 2304 -58 1901 -58 
Q 1440 -58 1059 176 
Q 678 410 457 829 
Q 237 1248 237 1779 
Q 237 2310 457 2720 
Q 678 3130 1059 3357 
Q 1440 3584 1901 3584 
z
M 3123 1766 
Q 3123 2131 2972 2400 
Q 2822 2669 2579 2809 
Q 2336 2950 2054 2950 
Q 1773 2950 1529 2812 
Q 1286 2675 1136 2409 
Q 986 2144 986 1779 
Q 986 1414 1136 1139 
Q 1286 864 1532 720 
Q 1779 576 2054 576 
Q 2336 576 2579 717 
Q 2822 858 2972 1130 
Q 3123 1402 3123 1766 
z
" transform="scale(0.015625)"/>
      <path id="Poppins-Medium-6c" d="M 1210 4736 
L 1210 0 
L 480 0 
L 480 4736 
L 1210 4736 
z
" transform="scale(0.015625)"/>
     </defs>
     <use xlink:href="#Poppins-Medium-48"/>
     <use xlink:href="#Poppins-Medium-61" x="70.499985"/>
     <use xlink:href="#Poppins-Medium-6e" x="138.299973"/>
     <use xlink:href="#Poppins-Medium-66" x="203.199966"/>
     <use xlink:href="#Poppins-Medium-73" x="236.399963"/>
     <use xlink:href="#Poppins-Medium-74" x="289.799957"/>
     <use xlink:href="#Poppins-Medium-61" x="326.999954"/>
     <use xlink:href="#Poppins-Medium-65" x="394.799942"/>
     <use xlink:href="#Poppins-Medium-6e" x="456.499939"/>
     <use xlink:href="#Poppins-Medium-67" x="521.399933"/>
     <use xlink:href="#Poppins-Medium-6c" x="589.199921"/>
    </g>
   </g>
   <g id="text_3">
    <!-- 32 -->
    <g style="fill: #ffffff" transform="translate(341.725486 254.414817) scale(0.24 -0.24)">
     <defs>
      <path id="Poppins-SemiBold-33" d="M 352 3437 
Q 384 4077 803 4425 
Q 1222 4774 1907 4774 
Q 2374 4774 2707 4611 
Q 3040 4448 3209 4169 
Q 3379 3891 3379 3539 
Q 3379 3136 3171 2857 
Q 2963 2579 2675 2483 
L 2675 2458 
Q 3046 2342 3254 2048 
Q 3462 1754 3462 1293 
Q 3462 909 3286 608 
Q 3110 307 2768 137 
Q 2426 -32 1946 -32 
Q 1222 -32 768 333 
Q 314 698 288 1408 
L 1158 1408 
Q 1171 1094 1372 905 
Q 1574 717 1926 717 
Q 2253 717 2429 899 
Q 2605 1082 2605 1370 
Q 2605 1754 2361 1920 
Q 2118 2086 1606 2086 
L 1421 2086 
L 1421 2822 
L 1606 2822 
Q 2515 2822 2515 3430 
Q 2515 3706 2352 3859 
Q 2189 4013 1882 4013 
Q 1581 4013 1417 3849 
Q 1254 3686 1229 3437 
L 352 3437 
z
" transform="scale(0.015625)"/>
      <path id="Poppins-SemiBold-32" d="M 621 1011 
Q 1235 1523 1600 1865 
Q 1965 2208 2208 2579 
Q 2451 2950 2451 3309 
Q 2451 3635 2297 3820 
Q 2144 4006 1824 4006 
Q 1504 4006 1331 3792 
Q 1158 3578 1152 3206 
L 282 3206 
Q 307 3974 739 4371 
Q 1171 4768 1837 4768 
Q 2566 4768 2956 4381 
Q 3347 3994 3347 3360 
Q 3347 2861 3078 2406 
Q 2810 1952 2464 1616 
Q 2118 1280 1562 806 
L 3450 806 
L 3450 64 
L 288 64 
L 288 730 
L 621 1011 
z
" transform="scale(0.015625)"/>
     </defs>
     <use xlink:href="#Poppins-SemiBold-33"/>
     <use xlink:href="#Poppins-SemiBold-32" x="59.899994"/>
    </g>
   </g>
   <g id="text_4">
    <!-- Anderson -->
    <g style="fill: #262626" transform="translate(397.624 251.072765) scale(0.16 -0.16)">
     <defs>
      <path id="Poppins-Medium-41" d="M 3162 909 
L 1299 909 
L 979 0 
L 218 0 
L 1811 4454 
L 2656 4454 
L 4250 0 
L 3482 0 
L 3162 909 
z
M 2957 1504 
L 2234 3571 
L 1504 1504 
L 2957 1504 
z
" transform="scale(0.015625)"/>
      <path id="Poppins-Medium-64" d="M 237 1779 
Q 237 2310 457 2720 
Q 678 3130 1059 3357 
Q 1440 3584 1907 3584 
Q 2253 3584 2589 3433 
Q 2925 3283 3123 3034 
L 3123 4736 
L 3859 4736 
L 3859 0 
L 3123 0 
L 3123 531 
Q 2944 275 2627 108 
Q 2310 -58 1901 -58 
Q 1440 -58 1059 176 
Q 678 410 457 829 
Q 237 1248 237 1779 
z
M 3123 1766 
Q 3123 2131 2972 2400 
Q 2822 2669 2579 2809 
Q 2336 2950 2054 2950 
Q 1773 2950 1529 2812 
Q 1286 2675 1136 2409 
Q 986 2144 986 1779 
Q 986 1414 1136 1139 
Q 1286 864 1532 720 
Q 1779 576 2054 576 
Q 2336 576 2579 717 
Q 2822 858 2972 1130 
Q 3123 1402 3123 1766 
z
" transform="scale(0.015625)"/>
      <path id="Poppins-Medium-72" d="M 1210 3014 
Q 1370 3283 1635 3433 
Q 1901 3584 2266 3584 
L 2266 2829 
L 2080 2829 
Q 1651 2829 1430 2611 
Q 1210 2394 1210 1856 
L 1210 0 
L 480 0 
L 480 3526 
L 1210 3526 
L 1210 3014 
z
" transform="scale(0.015625)"/>
      <path id="Poppins-Medium-6f" d="M 2010 -58 
Q 1510 -58 1107 169 
Q 704 397 473 809 
Q 243 1222 243 1766 
Q 243 2304 480 2720 
Q 717 3136 1126 3360 
Q 1536 3584 2042 3584 
Q 2547 3584 2956 3360 
Q 3366 3136 3603 2720 
Q 3840 2304 3840 1766 
Q 3840 1229 3597 813 
Q 3354 397 2934 169 
Q 2515 -58 2010 -58 
z
M 2010 576 
Q 2291 576 2537 710 
Q 2784 845 2937 1113 
Q 3091 1382 3091 1766 
Q 3091 2150 2944 2416 
Q 2797 2682 2553 2816 
Q 2310 2950 2029 2950 
Q 1747 2950 1507 2816 
Q 1267 2682 1126 2416 
Q 986 2150 986 1766 
Q 986 1197 1277 886 
Q 1568 576 2010 576 
z
" transform="scale(0.015625)"/>
     </defs>
     <use xlink:href="#Poppins-Medium-41"/>
     <use xlink:href="#Poppins-Medium-6e" x="69.699982"/>
     <use xlink:href="#Poppins-Medium-64" x="134.599976"/>
     <use xlink:href="#Poppins-Medium-65" x="202.399963"/>
     <use xlink:href="#Poppins-Medium-72" x="264.09996"/>
     <use xlink:href="#Poppins-Medium-73" x="302.499954"/>
     <use xlink:href="#Poppins-Medium-6f" x="355.899948"/>
     <use xlink:href="#Poppins-Medium-6e" x="419.699936"/>
    </g>
   </g>
   <g id="text_5">
    <!-- 29 -->
    <g style="fill: #ffffff" transform="translate(341.725486 327.939965) scale(0.24 -0.24)">
     <defs>
      <path id="Poppins-SemiBold-39" d="M 1376 1312 
Q 1427 1030 1609 880 
Q 1792 730 2099 730 
Q 2496 730 2675 1059 
Q 2854 1389 2854 2170 
Q 2707 1965 2441 1849 
Q 2176 1734 1869 1734 
Q 1459 1734 1129 1904 
Q 800 2074 608 2410 
Q 416 2746 416 3226 
Q 416 3936 838 4355 
Q 1261 4774 1990 4774 
Q 2899 4774 3273 4192 
Q 3648 3610 3648 2438 
Q 3648 1606 3504 1075 
Q 3360 544 3011 269 
Q 2662 -6 2061 -6 
Q 1587 -6 1254 176 
Q 922 358 746 656 
Q 570 954 544 1312 
L 1376 1312 
z
M 2054 2464 
Q 2387 2464 2579 2669 
Q 2771 2874 2771 3219 
Q 2771 3597 2569 3805 
Q 2368 4013 2022 4013 
Q 1677 4013 1475 3798 
Q 1274 3584 1274 3232 
Q 1274 2893 1469 2678 
Q 1664 2464 2054 2464 
z
" transform="scale(0.015625)"/>
     </defs>
     <use xlink:href="#Poppins-SemiBold-32"/>
     <use xlink:href="#Poppins-SemiBold-39" x="57.399994"/>
    </g>
   </g>
   <g id="text_6">
    <!-- Brogi -->
    <g style="fill: #262626" transform="translate(397.624 324.597913) scale(0.16 -0.16)">
     <defs>
      <path id="Poppins-Medium-42" d="M 2861 2285 
Q 3219 2221 3468 1907 
Q 3718 1594 3718 1197 
Q 3718 858 3542 586 
Q 3366 314 3033 157 
Q 2701 0 2259 0 
L 480 0 
L 480 4448 
L 2176 4448 
Q 2630 4448 2956 4294 
Q 3283 4141 3449 3881 
Q 3616 3622 3616 3302 
Q 3616 2918 3411 2662 
Q 3206 2406 2861 2285 
z
M 1210 2579 
L 2112 2579 
Q 2470 2579 2672 2742 
Q 2874 2906 2874 3213 
Q 2874 3514 2672 3683 
Q 2470 3853 2112 3853 
L 1210 3853 
L 1210 2579 
z
M 2195 595 
Q 2566 595 2777 774 
Q 2989 954 2989 1274 
Q 2989 1600 2765 1792 
Q 2541 1984 2170 1984 
L 1210 1984 
L 1210 595 
L 2195 595 
z
" transform="scale(0.015625)"/>
      <path id="Poppins-Medium-69" d="M 851 3994 
Q 653 3994 518 4128 
Q 384 4262 384 4461 
Q 384 4659 518 4793 
Q 653 4928 851 4928 
Q 1043 4928 1177 4793 
Q 1312 4659 1312 4461 
Q 1312 4262 1177 4128 
Q 1043 3994 851 3994 
z
M 1210 3526 
L 1210 0 
L 480 0 
L 480 3526 
L 1210 3526 
z
" transform="scale(0.015625)"/>
     </defs>
     <use xlink:href="#Poppins-Medium-42"/>
     <use xlink:href="#Poppins-Medium-72" x="62.999985"/>
     <use xlink:href="#Poppins-Medium-6f" x="101.399979"/>
     <use xlink:href="#Poppins-Medium-67" x="165.199966"/>
     <use xlink:href="#Poppins-Medium-69" x="232.999954"/>
    </g>
   </g>
   <g id="text_7">
    <!-- 26 -->
    <g style="fill: #ffffff" transform="translate(341.725486 401.465113) scale(0.22 -0.22)">
     <defs>
      <path id="Poppins-SemiBold-36" d="M 2758 3501 
Q 2694 3770 2537 3904 
Q 2381 4038 2086 4038 
Q 1645 4038 1437 3683 
Q 1229 3328 1222 2528 
Q 1376 2784 1670 2928 
Q 1965 3072 2310 3072 
Q 2726 3072 3046 2893 
Q 3366 2714 3545 2371 
Q 3725 2029 3725 1549 
Q 3725 1094 3542 739 
Q 3360 384 3008 185 
Q 2656 -13 2170 -13 
Q 1504 -13 1123 281 
Q 742 576 592 1104 
Q 442 1632 442 2406 
Q 442 3578 845 4176 
Q 1248 4774 2118 4774 
Q 2790 4774 3161 4409 
Q 3533 4045 3590 3501 
L 2758 3501 
z
M 2106 2336 
Q 1766 2336 1536 2137 
Q 1306 1939 1306 1562 
Q 1306 1184 1520 966 
Q 1734 749 2125 749 
Q 2470 749 2672 960 
Q 2874 1171 2874 1530 
Q 2874 1901 2678 2118 
Q 2483 2336 2106 2336 
z
" transform="scale(0.015625)"/>
     </defs>
     <use xlink:href="#Poppins-SemiBold-32"/>
     <use xlink:href="#Poppins-SemiBold-36" x="57.399994"/>
    </g>
   </g>
   <g id="text_8">
    <!-- Bruckmann -->
    <g style="fill: #262626" transform="translate(397.624 398.123061) scale(0.14 -0.14)">
     <defs>
      <path id="Poppins-Medium-75" d="M 3674 3526 
L 3674 0 
L 2944 0 
L 2944 416 
Q 2771 198 2492 73 
Q 2214 -51 1901 -51 
Q 1485 -51 1155 121 
Q 826 294 637 633 
Q 448 973 448 1453 
L 448 3526 
L 1171 3526 
L 1171 1562 
Q 1171 1088 1408 835 
Q 1645 582 2054 582 
Q 2464 582 2704 835 
Q 2944 1088 2944 1562 
L 2944 3526 
L 3674 3526 
z
" transform="scale(0.015625)"/>
      <path id="Poppins-Medium-63" d="M 237 1766 
Q 237 2310 457 2723 
Q 678 3136 1068 3360 
Q 1459 3584 1965 3584 
Q 2605 3584 3024 3280 
Q 3443 2976 3590 2413 
L 2803 2413 
Q 2707 2675 2496 2822 
Q 2285 2970 1965 2970 
Q 1517 2970 1251 2653 
Q 986 2336 986 1766 
Q 986 1197 1251 877 
Q 1517 557 1965 557 
Q 2598 557 2803 1114 
L 3590 1114 
Q 3437 576 3014 259 
Q 2592 -58 1965 -58 
Q 1459 -58 1068 169 
Q 678 397 457 809 
Q 237 1222 237 1766 
z
" transform="scale(0.015625)"/>
      <path id="Poppins-Medium-6b" d="M 1875 1760 
L 3501 0 
L 2515 0 
L 1210 1517 
L 1210 0 
L 480 0 
L 480 4736 
L 1210 4736 
L 1210 1984 
L 2490 3526 
L 3501 3526 
L 1875 1760 
z
" transform="scale(0.015625)"/>
      <path id="Poppins-Medium-6d" d="M 4749 3584 
Q 5165 3584 5494 3411 
Q 5824 3238 6013 2899 
Q 6202 2560 6202 2080 
L 6202 0 
L 5478 0 
L 5478 1971 
Q 5478 2445 5241 2697 
Q 5005 2950 4595 2950 
Q 4186 2950 3946 2697 
Q 3706 2445 3706 1971 
L 3706 0 
L 2982 0 
L 2982 1971 
Q 2982 2445 2745 2697 
Q 2509 2950 2099 2950 
Q 1690 2950 1450 2697 
Q 1210 2445 1210 1971 
L 1210 0 
L 480 0 
L 480 3526 
L 1210 3526 
L 1210 3123 
Q 1389 3341 1664 3462 
Q 1939 3584 2253 3584 
Q 2675 3584 3008 3405 
Q 3341 3226 3520 2886 
Q 3680 3206 4019 3395 
Q 4358 3584 4749 3584 
z
" transform="scale(0.015625)"/>
     </defs>
     <use xlink:href="#Poppins-Medium-42"/>
     <use xlink:href="#Poppins-Medium-72" x="62.999985"/>
     <use xlink:href="#Poppins-Medium-75" x="101.399979"/>
     <use xlink:href="#Poppins-Medium-63" x="166.299973"/>
     <use xlink:href="#Poppins-Medium-6b" x="226.299957"/>
     <use xlink:href="#Poppins-Medium-6d" x="281.699951"/>
     <use xlink:href="#Poppins-Medium-61" x="385.599945"/>
     <use xlink:href="#Poppins-Medium-6e" x="453.399933"/>
     <use xlink:href="#Poppins-Medium-6e" x="518.299927"/>
    </g>
   </g>
   <g id="text_9">
    <!-- 26 -->
    <g style="fill: #ffffff" transform="translate(341.725486 474.990261) scale(0.22 -0.22)">
     <use xlink:href="#Poppins-SemiBold-32"/>
     <use xlink:href="#Poppins-SemiBold-36" x="57.399994"/>
    </g>
   </g>
   <g id="text_10">
    <!-- Alinari -->
    <g style="fill: #262626" transform="translate(397.624 471.648209) scale(0.14 -0.14)">
     <use xlink:href="#Poppins-Medium-41"/>
     <use xlink:href="#Poppins-Medium-6c" x="69.699982"/>
     <use xlink:href="#Poppins-Medium-69" x="96.099976"/>
     <use xlink:href="#Poppins-Medium-6e" x="122.499969"/>
     <use xlink:href="#Poppins-Medium-61" x="187.399963"/>
     <use xlink:href="#Poppins-Medium-72" x="255.199951"/>
     <use xlink:href="#Poppins-Medium-69" x="293.599945"/>
    </g>
   </g>
   <g id="text_11">
    <!-- 17 -->
    <g style="fill: #ffffff" transform="translate(346.025371 538.489252) scale(0.22 -0.22)">
     <defs>
      <path id="Poppins-SemiBold-31" d="M 230 3840 
L 230 4666 
L 1773 4666 
L 1773 0 
L 851 0 
L 851 3840 
L 230 3840 
z
" transform="scale(0.015625)"/>
     </defs>
     <use xlink:href="#Poppins-SemiBold-31"/>
     <use xlink:href="#Poppins-SemiBold-37" x="36.199997"/>
    </g>
   </g>
   <g id="text_12">
    <!-- Unknown photographers -->
    <g style="fill: #262626" transform="translate(392.249143 536.484021) scale(0.14 -0.14)">
     <defs>
      <path id="Poppins-Medium-55" d="M 1203 4448 
L 1203 1613 
Q 1203 1107 1468 851 
Q 1734 595 2208 595 
Q 2688 595 2953 851 
Q 3219 1107 3219 1613 
L 3219 4448 
L 3949 4448 
L 3949 1626 
Q 3949 1082 3712 704 
Q 3475 326 3078 140 
Q 2682 -45 2202 -45 
Q 1722 -45 1328 140 
Q 934 326 704 704 
Q 474 1082 474 1626 
L 474 4448 
L 1203 4448 
z
" transform="scale(0.015625)"/>
      <path id="Poppins-Medium-77" d="M 5216 3526 
L 4122 0 
L 3354 0 
L 2643 2605 
L 1933 0 
L 1165 0 
L 64 3526 
L 806 3526 
L 1542 691 
L 2291 3526 
L 3053 3526 
L 3770 704 
L 4499 3526 
L 5216 3526 
z
" transform="scale(0.015625)"/>
      <path id="Poppins-Medium-20" transform="scale(0.015625)"/>
      <path id="Poppins-Medium-70" d="M 1210 3008 
Q 1395 3251 1715 3417 
Q 2035 3584 2438 3584 
Q 2899 3584 3280 3357 
Q 3661 3130 3878 2720 
Q 4096 2310 4096 1779 
Q 4096 1248 3878 829 
Q 3661 410 3280 176 
Q 2899 -58 2438 -58 
Q 2035 -58 1721 105 
Q 1408 269 1210 512 
L 1210 -1677 
L 480 -1677 
L 480 3526 
L 1210 3526 
L 1210 3008 
z
M 3354 1779 
Q 3354 2144 3203 2409 
Q 3053 2675 2806 2812 
Q 2560 2950 2278 2950 
Q 2003 2950 1756 2809 
Q 1510 2669 1360 2400 
Q 1210 2131 1210 1766 
Q 1210 1402 1360 1130 
Q 1510 858 1756 717 
Q 2003 576 2278 576 
Q 2560 576 2806 720 
Q 3053 864 3203 1139 
Q 3354 1414 3354 1779 
z
" transform="scale(0.015625)"/>
      <path id="Poppins-Medium-68" d="M 2304 3584 
Q 2707 3584 3024 3411 
Q 3341 3238 3523 2899 
Q 3706 2560 3706 2080 
L 3706 0 
L 2982 0 
L 2982 1971 
Q 2982 2445 2745 2697 
Q 2509 2950 2099 2950 
Q 1690 2950 1450 2697 
Q 1210 2445 1210 1971 
L 1210 0 
L 480 0 
L 480 4736 
L 1210 4736 
L 1210 3117 
Q 1395 3341 1680 3462 
Q 1965 3584 2304 3584 
z
" transform="scale(0.015625)"/>
     </defs>
     <use xlink:href="#Poppins-Medium-55"/>
     <use xlink:href="#Poppins-Medium-6e" x="68.999985"/>
     <use xlink:href="#Poppins-Medium-6b" x="133.899979"/>
     <use xlink:href="#Poppins-Medium-6e" x="189.299973"/>
     <use xlink:href="#Poppins-Medium-6f" x="254.199966"/>
     <use xlink:href="#Poppins-Medium-77" x="317.999954"/>
     <use xlink:href="#Poppins-Medium-6e" x="400.499939"/>
     <use xlink:href="#Poppins-Medium-20" x="465.399933"/>
     <use xlink:href="#Poppins-Medium-70" x="491.399918"/>
     <use xlink:href="#Poppins-Medium-68" x="559.199905"/>
     <use xlink:href="#Poppins-Medium-6f" x="624.099899"/>
     <use xlink:href="#Poppins-Medium-74" x="687.899887"/>
     <use xlink:href="#Poppins-Medium-6f" x="725.099884"/>
     <use xlink:href="#Poppins-Medium-67" x="788.899872"/>
     <use xlink:href="#Poppins-Medium-72" x="856.69986"/>
     <use xlink:href="#Poppins-Medium-61" x="895.099854"/>
     <use xlink:href="#Poppins-Medium-70" x="962.899841"/>
     <use xlink:href="#Poppins-Medium-68" x="1030.699829"/>
     <use xlink:href="#Poppins-Medium-65" x="1095.599823"/>
     <use xlink:href="#Poppins-Medium-72" x="1157.29982"/>
     <use xlink:href="#Poppins-Medium-73" x="1195.699814"/>
    </g>
   </g>
   <g id="text_13">
    <!-- 13 -->
    <g style="fill: #ffffff" transform="translate(346.025371 596.64096) scale(0.22 -0.22)">
     <use xlink:href="#Poppins-SemiBold-31"/>
     <use xlink:href="#Poppins-SemiBold-33" x="36.199997"/>
    </g>
   </g>
   <g id="text_14">
    <!-- Rudolph Tamme -->
    <g style="fill: #262626" transform="translate(386.874286 593.967318) scale(0.14 -0.14)">
     <defs>
      <path id="Poppins-Medium-52" d="M 2790 0 
L 1766 1779 
L 1210 1779 
L 1210 0 
L 480 0 
L 480 4448 
L 2016 4448 
Q 2528 4448 2883 4269 
Q 3238 4090 3414 3789 
Q 3590 3488 3590 3117 
Q 3590 2682 3337 2326 
Q 3085 1971 2560 1843 
L 3661 0 
L 2790 0 
z
M 1210 2362 
L 2016 2362 
Q 2426 2362 2634 2566 
Q 2842 2771 2842 3117 
Q 2842 3462 2637 3657 
Q 2432 3853 2016 3853 
L 1210 3853 
L 1210 2362 
z
" transform="scale(0.015625)"/>
      <path id="Poppins-Medium-54" d="M 3354 4448 
L 3354 3853 
L 2170 3853 
L 2170 0 
L 1440 0 
L 1440 3853 
L 250 3853 
L 250 4448 
L 3354 4448 
z
" transform="scale(0.015625)"/>
     </defs>
     <use xlink:href="#Poppins-Medium-52"/>
     <use xlink:href="#Poppins-Medium-75" x="63.199997"/>
     <use xlink:href="#Poppins-Medium-64" x="128.099991"/>
     <use xlink:href="#Poppins-Medium-6f" x="195.899979"/>
     <use xlink:href="#Poppins-Medium-6c" x="259.699966"/>
     <use xlink:href="#Poppins-Medium-70" x="286.09996"/>
     <use xlink:href="#Poppins-Medium-68" x="353.899948"/>
     <use xlink:href="#Poppins-Medium-20" x="418.799942"/>
     <use xlink:href="#Poppins-Medium-54" x="444.799927"/>
     <use xlink:href="#Poppins-Medium-61" x="501.199921"/>
     <use xlink:href="#Poppins-Medium-6d" x="568.999908"/>
     <use xlink:href="#Poppins-Medium-6d" x="672.899902"/>
     <use xlink:href="#Poppins-Medium-65" x="776.799896"/>
    </g>
   </g>
   <g id="text_15">
    <!-- 4 -->
    <g style="fill: #ffffff" transform="translate(349.250286 635.408765) scale(0.18 -0.18)">
     <defs>
      <path id="Poppins-SemiBold-34" d="M 301 909 
L 301 1613 
L 2394 4608 
L 3437 4608 
L 3437 1690 
L 4000 1690 
L 4000 909 
L 3437 909 
L 3437 0 
L 2541 0 
L 2541 909 
L 301 909 
z
M 2598 3648 
L 1286 1690 
L 2598 1690 
L 2598 3648 
z
" transform="scale(0.015625)"/>
     </defs>
     <use xlink:href="#Poppins-SemiBold-34"/>
    </g>
   </g>
   <g id="text_16">
    <!-- Adolphe Braun -->
    <g style="fill: #262626" transform="translate(376.124571 634.071944) scale(0.12 -0.12)">
     <use xlink:href="#Poppins-Medium-41"/>
     <use xlink:href="#Poppins-Medium-64" x="69.699982"/>
     <use xlink:href="#Poppins-Medium-6f" x="137.499969"/>
     <use xlink:href="#Poppins-Medium-6c" x="201.299957"/>
     <use xlink:href="#Poppins-Medium-70" x="227.699951"/>
     <use xlink:href="#Poppins-Medium-68" x="295.499939"/>
     <use xlink:href="#Poppins-Medium-65" x="360.399933"/>
     <use xlink:href="#Poppins-Medium-20" x="422.09993"/>
     <use xlink:href="#Poppins-Medium-42" x="448.099915"/>
     <use xlink:href="#Poppins-Medium-72" x="511.099899"/>
     <use xlink:href="#Poppins-Medium-61" x="549.499893"/>
     <use xlink:href="#Poppins-Medium-75" x="617.299881"/>
     <use xlink:href="#Poppins-Medium-6e" x="682.199875"/>
    </g>
   </g>
   <g id="text_17">
    <!-- 3 -->
    <g style="fill: #ffffff" transform="translate(349.250286 665.487235) scale(0.18 -0.18)">
     <use xlink:href="#Poppins-SemiBold-33"/>
    </g>
   </g>
   <g id="text_18">
    <!-- Reali -->
    <g style="fill: #262626" transform="translate(376.124571 662.145183) scale(0.12 -0.12)">
     <use xlink:href="#Poppins-Medium-52"/>
     <use xlink:href="#Poppins-Medium-65" x="63.199997"/>
     <use xlink:href="#Poppins-Medium-61" x="124.899994"/>
     <use xlink:href="#Poppins-Medium-6c" x="192.699982"/>
     <use xlink:href="#Poppins-Medium-69" x="219.099976"/>
    </g>
   </g>
   <g id="text_19">
    <!-- 2 -->
    <g style="fill: #ffffff" transform="translate(349.250286 692.223652) scale(0.18 -0.18)">
     <use xlink:href="#Poppins-SemiBold-32"/>
    </g>
   </g>
   <g id="text_20">
    <!-- Fiorentini -->
    <g style="fill: #262626" transform="translate(376.124571 690.886831) scale(0.12 -0.12)">
     <defs>
      <path id="Poppins-Medium-46" d="M 3098 4448 
L 3098 3853 
L 1210 3853 
L 1210 2541 
L 2682 2541 
L 2682 1946 
L 1210 1946 
L 1210 0 
L 480 0 
L 480 4448 
L 3098 4448 
z
" transform="scale(0.015625)"/>
     </defs>
     <use xlink:href="#Poppins-Medium-46"/>
     <use xlink:href="#Poppins-Medium-69" x="51.499985"/>
     <use xlink:href="#Poppins-Medium-6f" x="77.899979"/>
     <use xlink:href="#Poppins-Medium-72" x="141.699966"/>
     <use xlink:href="#Poppins-Medium-65" x="180.09996"/>
     <use xlink:href="#Poppins-Medium-6e" x="241.799957"/>
     <use xlink:href="#Poppins-Medium-74" x="306.699951"/>
     <use xlink:href="#Poppins-Medium-69" x="343.899948"/>
     <use xlink:href="#Poppins-Medium-6e" x="370.299942"/>
     <use xlink:href="#Poppins-Medium-69" x="435.199936"/>
    </g>
   </g>
   <g id="text_21">
    <!-- 1 -->
    <g style="fill: #ffffff" transform="translate(351.400229 714.949607) scale(0.15 -0.15)">
     <use xlink:href="#Poppins-SemiBold-31"/>
    </g>
   </g>
   <g id="text_22">
    <!-- Luigi Dubray -->
    <g style="fill: #262626" transform="translate(376.124571 714.281197) scale(0.12 -0.12)">
     <defs>
      <path id="Poppins-Medium-4c" d="M 1210 589 
L 2714 589 
L 2714 0 
L 480 0 
L 480 4448 
L 1210 4448 
L 1210 589 
z
" transform="scale(0.015625)"/>
      <path id="Poppins-Medium-44" d="M 1933 4448 
Q 2643 4448 3177 4176 
Q 3712 3904 4003 3395 
Q 4294 2886 4294 2208 
Q 4294 1530 4003 1030 
Q 3712 531 3177 265 
Q 2643 0 1933 0 
L 480 0 
L 480 4448 
L 1933 4448 
z
M 1933 595 
Q 2714 595 3130 1017 
Q 3546 1440 3546 2208 
Q 3546 2982 3130 3417 
Q 2714 3853 1933 3853 
L 1210 3853 
L 1210 595 
L 1933 595 
z
" transform="scale(0.015625)"/>
      <path id="Poppins-Medium-62" d="M 1210 3002 
Q 1395 3258 1718 3421 
Q 2042 3584 2438 3584 
Q 2906 3584 3283 3360 
Q 3661 3136 3878 2723 
Q 4096 2310 4096 1779 
Q 4096 1248 3878 829 
Q 3661 410 3280 176 
Q 2899 -58 2438 -58 
Q 2029 -58 1712 102 
Q 1395 262 1210 512 
L 1210 0 
L 480 0 
L 480 4736 
L 1210 4736 
L 1210 3002 
z
M 3354 1779 
Q 3354 2144 3203 2409 
Q 3053 2675 2806 2812 
Q 2560 2950 2278 2950 
Q 2003 2950 1756 2809 
Q 1510 2669 1360 2400 
Q 1210 2131 1210 1766 
Q 1210 1402 1360 1130 
Q 1510 858 1756 717 
Q 2003 576 2278 576 
Q 2560 576 2806 720 
Q 3053 864 3203 1139 
Q 3354 1414 3354 1779 
z
" transform="scale(0.015625)"/>
      <path id="Poppins-Medium-79" d="M 3654 3526 
L 1491 -1658 
L 736 -1658 
L 1453 58 
L 64 3526 
L 877 3526 
L 1869 838 
L 2899 3526 
L 3654 3526 
z
" transform="scale(0.015625)"/>
     </defs>
     <use xlink:href="#Poppins-Medium-4c"/>
     <use xlink:href="#Poppins-Medium-75" x="44.399994"/>
     <use xlink:href="#Poppins-Medium-69" x="109.299988"/>
     <use xlink:href="#Poppins-Medium-67" x="135.699982"/>
     <use xlink:href="#Poppins-Medium-69" x="203.499969"/>
     <use xlink:href="#Poppins-Medium-20" x="229.899963"/>
     <use xlink:href="#Poppins-Medium-44" x="255.899948"/>
     <use xlink:href="#Poppins-Medium-75" x="326.799942"/>
     <use xlink:href="#Poppins-Medium-62" x="391.699936"/>
     <use xlink:href="#Poppins-Medium-72" x="459.499924"/>
     <use xlink:href="#Poppins-Medium-61" x="497.899918"/>
     <use xlink:href="#Poppins-Medium-79" x="565.699905"/>
    </g>
   </g>
   <g id="text_23">
    <!-- 1 -->
    <g style="fill: #ffffff" transform="translate(351.400229 735.00192) scale(0.15 -0.15)">
     <use xlink:href="#Poppins-SemiBold-31"/>
    </g>
   </g>
   <g id="text_24">
    <!-- Anchise Mannelli -->
    <g style="fill: #262626" transform="translate(376.124571 734.33351) scale(0.12 -0.12)">
     <defs>
      <path id="Poppins-Medium-4d" d="M 5165 4448 
L 5165 0 
L 4435 0 
L 4435 3046 
L 3078 0 
L 2573 0 
L 1210 3046 
L 1210 0 
L 480 0 
L 480 4448 
L 1267 4448 
L 2829 960 
L 4384 4448 
L 5165 4448 
z
" transform="scale(0.015625)"/>
     </defs>
     <use xlink:href="#Poppins-Medium-41"/>
     <use xlink:href="#Poppins-Medium-6e" x="69.699982"/>
     <use xlink:href="#Poppins-Medium-63" x="134.599976"/>
     <use xlink:href="#Poppins-Medium-68" x="194.59996"/>
     <use xlink:href="#Poppins-Medium-69" x="259.499954"/>
     <use xlink:href="#Poppins-Medium-73" x="285.899948"/>
     <use xlink:href="#Poppins-Medium-65" x="339.299942"/>
     <use xlink:href="#Poppins-Medium-20" x="400.999939"/>
     <use xlink:href="#Poppins-Medium-4d" x="426.999924"/>
     <use xlink:href="#Poppins-Medium-61" x="515.199905"/>
     <use xlink:href="#Poppins-Medium-6e" x="582.999893"/>
     <use xlink:href="#Poppins-Medium-6e" x="647.899887"/>
     <use xlink:href="#Poppins-Medium-65" x="712.799881"/>
     <use xlink:href="#Poppins-Medium-6c" x="774.499878"/>
     <use xlink:href="#Poppins-Medium-6c" x="800.899872"/>
     <use xlink:href="#Poppins-Medium-69" x="827.299866"/>
    </g>
   </g>
   <g id="text_25">
    <!-- 1 -->
    <g style="fill: #ffffff" transform="translate(351.400229 755.054233) scale(0.15 -0.15)">
     <use xlink:href="#Poppins-SemiBold-31"/>
    </g>
   </g>
   <g id="text_26">
    <!-- Josef Löwy -->
    <g style="fill: #262626" transform="translate(376.124571 754.385823) scale(0.12 -0.12)">
     <defs>
      <path id="Poppins-Medium-4a" d="M 2906 4448 
L 2906 1242 
Q 2906 646 2544 300 
Q 2182 -45 1594 -45 
Q 1005 -45 643 300 
Q 282 646 282 1242 
L 1018 1242 
Q 1024 947 1168 774 
Q 1312 602 1594 602 
Q 1875 602 2022 778 
Q 2170 954 2170 1242 
L 2170 4448 
L 2906 4448 
z
" transform="scale(0.015625)"/>
      <path id="Poppins-Medium-f6" d="M 2010 -58 
Q 1510 -58 1107 169 
Q 704 397 473 809 
Q 243 1222 243 1766 
Q 243 2304 480 2720 
Q 717 3136 1126 3360 
Q 1536 3584 2042 3584 
Q 2547 3584 2956 3360 
Q 3366 3136 3603 2720 
Q 3840 2304 3840 1766 
Q 3840 1229 3597 813 
Q 3354 397 2934 169 
Q 2515 -58 2010 -58 
z
M 2010 576 
Q 2291 576 2537 710 
Q 2784 845 2937 1113 
Q 3091 1382 3091 1766 
Q 3091 2150 2944 2416 
Q 2797 2682 2553 2816 
Q 2310 2950 2029 2950 
Q 1747 2950 1507 2816 
Q 1267 2682 1126 2416 
Q 986 2150 986 1766 
Q 986 1197 1277 886 
Q 1568 576 2010 576 
z
M 1491 4026 
Q 1331 4026 1219 4138 
Q 1107 4250 1107 4410 
Q 1107 4570 1219 4682 
Q 1331 4794 1491 4794 
Q 1651 4794 1763 4682 
Q 1875 4570 1875 4410 
Q 1875 4250 1763 4138 
Q 1651 4026 1491 4026 
z
M 2592 4026 
Q 2432 4026 2320 4138 
Q 2208 4250 2208 4410 
Q 2208 4570 2320 4682 
Q 2432 4794 2592 4794 
Q 2752 4794 2864 4682 
Q 2976 4570 2976 4410 
Q 2976 4250 2864 4138 
Q 2752 4026 2592 4026 
z
" transform="scale(0.015625)"/>
     </defs>
     <use xlink:href="#Poppins-Medium-4a"/>
     <use xlink:href="#Poppins-Medium-6f" x="56.399994"/>
     <use xlink:href="#Poppins-Medium-73" x="120.199982"/>
     <use xlink:href="#Poppins-Medium-65" x="173.599976"/>
     <use xlink:href="#Poppins-Medium-66" x="235.299973"/>
     <use xlink:href="#Poppins-Medium-20" x="268.499969"/>
     <use xlink:href="#Poppins-Medium-4c" x="294.499954"/>
     <use xlink:href="#Poppins-Medium-f6" x="338.899948"/>
     <use xlink:href="#Poppins-Medium-77" x="402.699936"/>
     <use xlink:href="#Poppins-Medium-79" x="485.199921"/>
    </g>
   </g>
   <g id="text_27">
    <!-- 1 -->
    <g style="fill: #ffffff" transform="translate(351.400229 775.106546) scale(0.15 -0.15)">
     <use xlink:href="#Poppins-SemiBold-31"/>
    </g>
   </g>
   <g id="text_28">
    <!-- Alfred Stieglitz -->
    <g style="fill: #262626" transform="translate(376.124571 774.438136) scale(0.12 -0.12)">
     <defs>
      <path id="Poppins-Medium-53" d="M 1946 -45 
Q 1498 -45 1139 112 
Q 781 269 576 557 
Q 371 845 371 1229 
L 1152 1229 
Q 1178 941 1379 755 
Q 1581 570 1946 570 
Q 2323 570 2534 752 
Q 2746 934 2746 1222 
Q 2746 1446 2614 1587 
Q 2483 1728 2288 1805 
Q 2093 1882 1747 1971 
Q 1312 2086 1040 2204 
Q 768 2323 576 2572 
Q 384 2822 384 3238 
Q 384 3622 576 3910 
Q 768 4198 1113 4352 
Q 1459 4506 1914 4506 
Q 2560 4506 2973 4182 
Q 3386 3859 3430 3296 
L 2624 3296 
Q 2605 3539 2393 3712 
Q 2182 3885 1837 3885 
Q 1523 3885 1324 3725 
Q 1126 3565 1126 3264 
Q 1126 3059 1251 2928 
Q 1376 2797 1568 2720 
Q 1760 2643 2093 2554 
Q 2534 2432 2812 2310 
Q 3091 2189 3286 1936 
Q 3482 1683 3482 1261 
Q 3482 922 3299 621 
Q 3117 320 2768 137 
Q 2419 -45 1946 -45 
z
" transform="scale(0.015625)"/>
      <path id="Poppins-Medium-7a" d="M 1126 595 
L 2726 595 
L 2726 0 
L 282 0 
L 282 595 
L 1888 2931 
L 282 2931 
L 282 3526 
L 2726 3526 
L 2726 2931 
L 1126 595 
z
" transform="scale(0.015625)"/>
     </defs>
     <use xlink:href="#Poppins-Medium-41"/>
     <use xlink:href="#Poppins-Medium-6c" x="69.699982"/>
     <use xlink:href="#Poppins-Medium-66" x="96.099976"/>
     <use xlink:href="#Poppins-Medium-72" x="129.299973"/>
     <use xlink:href="#Poppins-Medium-65" x="167.699966"/>
     <use xlink:href="#Poppins-Medium-64" x="229.399963"/>
     <use xlink:href="#Poppins-Medium-20" x="297.199951"/>
     <use xlink:href="#Poppins-Medium-53" x="323.199936"/>
     <use xlink:href="#Poppins-Medium-74" x="383.59993"/>
     <use xlink:href="#Poppins-Medium-69" x="420.799927"/>
     <use xlink:href="#Poppins-Medium-65" x="447.199921"/>
     <use xlink:href="#Poppins-Medium-67" x="508.899918"/>
     <use xlink:href="#Poppins-Medium-6c" x="576.699905"/>
     <use xlink:href="#Poppins-Medium-69" x="603.099899"/>
     <use xlink:href="#Poppins-Medium-74" x="629.499893"/>
     <use xlink:href="#Poppins-Medium-7a" x="666.69989"/>
    </g>
   </g>
   <g id="text_29">
    <!-- 1 -->
    <g style="fill: #ffffff" transform="translate(351.400229 795.158859) scale(0.15 -0.15)">
     <use xlink:href="#Poppins-SemiBold-31"/>
    </g>
   </g>
   <g id="text_30">
    <!-- Arthur Schwarz -->
    <g style="fill: #262626" transform="translate(376.124571 794.490449) scale(0.12 -0.12)">
     <use xlink:href="#Poppins-Medium-41"/>
     <use xlink:href="#Poppins-Medium-72" x="69.699982"/>
     <use xlink:href="#Poppins-Medium-74" x="108.099976"/>
     <use xlink:href="#Poppins-Medium-68" x="145.299973"/>
     <use xlink:href="#Poppins-Medium-75" x="210.199966"/>
     <use xlink:href="#Poppins-Medium-72" x="275.09996"/>
     <use xlink:href="#Poppins-Medium-20" x="313.499954"/>
     <use xlink:href="#Poppins-Medium-53" x="339.499939"/>
     <use xlink:href="#Poppins-Medium-63" x="399.899933"/>
     <use xlink:href="#Poppins-Medium-68" x="459.899918"/>
     <use xlink:href="#Poppins-Medium-77" x="524.799911"/>
     <use xlink:href="#Poppins-Medium-61" x="607.299896"/>
     <use xlink:href="#Poppins-Medium-72" x="675.099884"/>
     <use xlink:href="#Poppins-Medium-7a" x="713.499878"/>
    </g>
   </g>
   <g id="text_31">
    <!-- 1 -->
    <g style="fill: #ffffff" transform="translate(351.400229 815.211172) scale(0.15 -0.15)">
     <use xlink:href="#Poppins-SemiBold-31"/>
    </g>
   </g>
   <g id="text_32">
    <!-- Gustave Hermans -->
    <g style="fill: #262626" transform="translate(376.124571 814.542762) scale(0.12 -0.12)">
     <defs>
      <path id="Poppins-Medium-47" d="M 3699 3168 
Q 3526 3501 3219 3670 
Q 2912 3840 2509 3840 
Q 2067 3840 1721 3641 
Q 1376 3443 1181 3078 
Q 986 2714 986 2234 
Q 986 1754 1181 1386 
Q 1376 1018 1721 819 
Q 2067 621 2509 621 
Q 3104 621 3475 953 
Q 3846 1286 3930 1856 
L 2259 1856 
L 2259 2438 
L 4710 2438 
L 4710 1869 
Q 4640 1350 4342 915 
Q 4045 480 3568 221 
Q 3091 -38 2509 -38 
Q 1882 -38 1363 253 
Q 845 544 541 1062 
Q 237 1581 237 2234 
Q 237 2886 541 3404 
Q 845 3923 1366 4214 
Q 1888 4506 2509 4506 
Q 3219 4506 3772 4157 
Q 4326 3808 4576 3168 
L 3699 3168 
z
" transform="scale(0.015625)"/>
      <path id="Poppins-Medium-76" d="M 1843 653 
L 2842 3526 
L 3616 3526 
L 2272 0 
L 1402 0 
L 64 3526 
L 845 3526 
L 1843 653 
z
" transform="scale(0.015625)"/>
     </defs>
     <use xlink:href="#Poppins-Medium-47"/>
     <use xlink:href="#Poppins-Medium-75" x="77.299988"/>
     <use xlink:href="#Poppins-Medium-73" x="142.199982"/>
     <use xlink:href="#Poppins-Medium-74" x="195.599976"/>
     <use xlink:href="#Poppins-Medium-61" x="232.799973"/>
     <use xlink:href="#Poppins-Medium-76" x="300.59996"/>
     <use xlink:href="#Poppins-Medium-65" x="358.199951"/>
     <use xlink:href="#Poppins-Medium-20" x="419.899948"/>
     <use xlink:href="#Poppins-Medium-48" x="445.899933"/>
     <use xlink:href="#Poppins-Medium-65" x="516.399918"/>
     <use xlink:href="#Poppins-Medium-72" x="578.099915"/>
     <use xlink:href="#Poppins-Medium-6d" x="616.499908"/>
     <use xlink:href="#Poppins-Medium-61" x="720.399902"/>
     <use xlink:href="#Poppins-Medium-6e" x="788.19989"/>
     <use xlink:href="#Poppins-Medium-73" x="853.099884"/>
    </g>
   </g>
   <g id="text_33">
    <!-- 1 -->
    <g style="fill: #ffffff" transform="translate(351.400229 835.263485) scale(0.15 -0.15)">
     <use xlink:href="#Poppins-SemiBold-31"/>
    </g>
   </g>
   <g id="text_34">
    <!-- Candido Verri -->
    <g style="fill: #262626" transform="translate(376.124571 833.926664) scale(0.12 -0.12)">
     <defs>
      <path id="Poppins-Medium-43" d="M 237 2234 
Q 237 2886 541 3404 
Q 845 3923 1366 4214 
Q 1888 4506 2509 4506 
Q 3219 4506 3772 4157 
Q 4326 3808 4576 3168 
L 3699 3168 
Q 3526 3520 3219 3693 
Q 2912 3866 2509 3866 
Q 2067 3866 1721 3667 
Q 1376 3469 1181 3097 
Q 986 2726 986 2234 
Q 986 1741 1181 1369 
Q 1376 998 1721 796 
Q 2067 595 2509 595 
Q 2912 595 3219 768 
Q 3526 941 3699 1293 
L 4576 1293 
Q 4326 653 3772 307 
Q 3219 -38 2509 -38 
Q 1882 -38 1363 253 
Q 845 544 541 1062 
Q 237 1581 237 2234 
z
" transform="scale(0.015625)"/>
      <path id="Poppins-Medium-56" d="M 4314 4448 
L 2643 0 
L 1798 0 
L 122 4448 
L 902 4448 
L 2221 749 
L 3546 4448 
L 4314 4448 
z
" transform="scale(0.015625)"/>
     </defs>
     <use xlink:href="#Poppins-Medium-43"/>
     <use xlink:href="#Poppins-Medium-61" x="77.299988"/>
     <use xlink:href="#Poppins-Medium-6e" x="145.099976"/>
     <use xlink:href="#Poppins-Medium-64" x="209.999969"/>
     <use xlink:href="#Poppins-Medium-69" x="277.799957"/>
     <use xlink:href="#Poppins-Medium-64" x="304.199951"/>
     <use xlink:href="#Poppins-Medium-6f" x="371.999939"/>
     <use xlink:href="#Poppins-Medium-20" x="435.799927"/>
     <use xlink:href="#Poppins-Medium-56" x="461.799911"/>
     <use xlink:href="#Poppins-Medium-65" x="531.199905"/>
     <use xlink:href="#Poppins-Medium-72" x="592.899902"/>
     <use xlink:href="#Poppins-Medium-72" x="631.299896"/>
     <use xlink:href="#Poppins-Medium-69" x="669.69989"/>
    </g>
   </g>
   <g id="text_35">
    <!-- N. OF PHOTOS PER -->
    <g style="fill: #262626" transform="translate(253.36875 39.957) scale(0.24 -0.24)">
     <defs>
      <path id="Poppins-SemiBold-4e" d="M 4262 0 
L 3366 0 
L 1338 3066 
L 1338 0 
L 442 0 
L 442 4474 
L 1338 4474 
L 3366 1402 
L 3366 4474 
L 4262 4474 
L 4262 0 
z
" transform="scale(0.015625)"/>
      <path id="Poppins-SemiBold-2e" d="M 838 -45 
Q 595 -45 438 105 
Q 282 256 282 480 
Q 282 704 438 854 
Q 595 1005 838 1005 
Q 1075 1005 1228 854 
Q 1382 704 1382 480 
Q 1382 256 1228 105 
Q 1075 -45 838 -45 
z
" transform="scale(0.015625)"/>
      <path id="Poppins-SemiBold-20" transform="scale(0.015625)"/>
      <path id="Poppins-SemiBold-4f" d="M 2515 -45 
Q 1888 -45 1363 249 
Q 838 544 531 1065 
Q 224 1587 224 2246 
Q 224 2899 531 3420 
Q 838 3942 1363 4236 
Q 1888 4531 2515 4531 
Q 3149 4531 3670 4236 
Q 4192 3942 4496 3420 
Q 4800 2899 4800 2246 
Q 4800 1587 4496 1065 
Q 4192 544 3667 249 
Q 3142 -45 2515 -45 
z
M 2515 755 
Q 2918 755 3225 937 
Q 3533 1120 3705 1459 
Q 3878 1798 3878 2246 
Q 3878 2694 3705 3030 
Q 3533 3366 3225 3545 
Q 2918 3725 2515 3725 
Q 2112 3725 1801 3545 
Q 1491 3366 1318 3030 
Q 1146 2694 1146 2246 
Q 1146 1798 1318 1459 
Q 1491 1120 1801 937 
Q 2112 755 2515 755 
z
" transform="scale(0.015625)"/>
      <path id="Poppins-SemiBold-46" d="M 3200 4467 
L 3200 3744 
L 1338 3744 
L 1338 2598 
L 2765 2598 
L 2765 1888 
L 1338 1888 
L 1338 0 
L 442 0 
L 442 4467 
L 3200 4467 
z
" transform="scale(0.015625)"/>
      <path id="Poppins-SemiBold-50" d="M 3699 3085 
Q 3699 2726 3529 2412 
Q 3360 2099 2998 1907 
Q 2637 1715 2086 1715 
L 1338 1715 
L 1338 0 
L 442 0 
L 442 4467 
L 2086 4467 
Q 2605 4467 2969 4288 
Q 3334 4109 3516 3795 
Q 3699 3482 3699 3085 
z
M 2048 2438 
Q 2419 2438 2598 2608 
Q 2778 2778 2778 3085 
Q 2778 3738 2048 3738 
L 1338 3738 
L 1338 2438 
L 2048 2438 
z
" transform="scale(0.015625)"/>
      <path id="Poppins-SemiBold-48" d="M 4147 4467 
L 4147 0 
L 3251 0 
L 3251 1901 
L 1338 1901 
L 1338 0 
L 442 0 
L 442 4467 
L 1338 4467 
L 1338 2630 
L 3251 2630 
L 3251 4467 
L 4147 4467 
z
" transform="scale(0.015625)"/>
      <path id="Poppins-SemiBold-54" d="M 3482 4467 
L 3482 3744 
L 2291 3744 
L 2291 0 
L 1395 0 
L 1395 3744 
L 205 3744 
L 205 4467 
L 3482 4467 
z
" transform="scale(0.015625)"/>
      <path id="Poppins-SemiBold-53" d="M 1984 -45 
Q 1517 -45 1142 115 
Q 768 275 550 576 
Q 333 877 326 1286 
L 1286 1286 
Q 1306 1011 1482 851 
Q 1658 691 1965 691 
Q 2278 691 2457 841 
Q 2637 992 2637 1235 
Q 2637 1434 2515 1562 
Q 2394 1690 2211 1763 
Q 2029 1837 1709 1926 
Q 1274 2054 1002 2179 
Q 730 2304 534 2557 
Q 339 2810 339 3232 
Q 339 3629 537 3923 
Q 736 4218 1094 4374 
Q 1453 4531 1914 4531 
Q 2605 4531 3037 4195 
Q 3469 3859 3514 3258 
L 2528 3258 
Q 2515 3488 2332 3638 
Q 2150 3789 1850 3789 
Q 1587 3789 1430 3654 
Q 1274 3520 1274 3264 
Q 1274 3085 1392 2966 
Q 1510 2848 1686 2774 
Q 1862 2701 2182 2605 
Q 2618 2477 2893 2349 
Q 3168 2221 3366 1965 
Q 3565 1709 3565 1293 
Q 3565 934 3379 627 
Q 3194 320 2835 137 
Q 2477 -45 1984 -45 
z
" transform="scale(0.015625)"/>
      <path id="Poppins-SemiBold-45" d="M 1338 3744 
L 1338 2624 
L 2842 2624 
L 2842 1914 
L 1338 1914 
L 1338 730 
L 3034 730 
L 3034 0 
L 442 0 
L 442 4474 
L 3034 4474 
L 3034 3744 
L 1338 3744 
z
" transform="scale(0.015625)"/>
      <path id="Poppins-SemiBold-52" d="M 2746 0 
L 1760 1741 
L 1338 1741 
L 1338 0 
L 442 0 
L 442 4467 
L 2118 4467 
Q 2637 4467 3001 4284 
Q 3366 4102 3548 3792 
Q 3731 3482 3731 3098 
Q 3731 2656 3475 2301 
Q 3219 1946 2714 1811 
L 3782 0 
L 2746 0 
z
M 1338 2413 
L 2086 2413 
Q 2451 2413 2630 2589 
Q 2810 2765 2810 3078 
Q 2810 3386 2630 3555 
Q 2451 3725 2086 3725 
L 1338 3725 
L 1338 2413 
z
" transform="scale(0.015625)"/>
     </defs>
     <use xlink:href="#Poppins-SemiBold-4e"/>
     <use xlink:href="#Poppins-SemiBold-2e" x="73.499985"/>
     <use xlink:href="#Poppins-SemiBold-20" x="99.499969"/>
     <use xlink:href="#Poppins-SemiBold-4f" x="123.299957"/>
     <use xlink:href="#Poppins-SemiBold-46" x="201.799942"/>
     <use xlink:href="#Poppins-SemiBold-20" x="254.799927"/>
     <use xlink:href="#Poppins-SemiBold-50" x="278.599915"/>
     <use xlink:href="#Poppins-SemiBold-48" x="339.399902"/>
     <use xlink:href="#Poppins-SemiBold-4f" x="411.099884"/>
     <use xlink:href="#Poppins-SemiBold-54" x="489.599869"/>
     <use xlink:href="#Poppins-SemiBold-4f" x="547.299866"/>
     <use xlink:href="#Poppins-SemiBold-53" x="625.79985"/>
     <use xlink:href="#Poppins-SemiBold-20" x="686.699844"/>
     <use xlink:href="#Poppins-SemiBold-50" x="710.499832"/>
     <use xlink:href="#Poppins-SemiBold-45" x="771.29982"/>
     <use xlink:href="#Poppins-SemiBold-52" x="824.499817"/>
    </g>
    <!-- PHOTOGRAPHER -->
    <g style="fill: #262626" transform="translate(262.861875 67.6065) scale(0.24 -0.24)">
     <defs>
      <path id="Poppins-SemiBold-47" d="M 3552 3123 
Q 3398 3405 3129 3552 
Q 2861 3699 2502 3699 
Q 2106 3699 1798 3520 
Q 1491 3341 1318 3008 
Q 1146 2675 1146 2240 
Q 1146 1792 1322 1459 
Q 1498 1126 1811 947 
Q 2125 768 2541 768 
Q 3053 768 3379 1040 
Q 3706 1312 3808 1798 
L 2272 1798 
L 2272 2483 
L 4691 2483 
L 4691 1702 
Q 4602 1235 4307 838 
Q 4013 442 3549 202 
Q 3085 -38 2509 -38 
Q 1862 -38 1340 253 
Q 819 544 521 1062 
Q 224 1581 224 2240 
Q 224 2899 521 3420 
Q 819 3942 1340 4233 
Q 1862 4525 2502 4525 
Q 3258 4525 3814 4157 
Q 4371 3789 4582 3123 
L 3552 3123 
z
" transform="scale(0.015625)"/>
      <path id="Poppins-SemiBold-41" d="M 3181 851 
L 1402 851 
L 1107 0 
L 166 0 
L 1773 4474 
L 2816 4474 
L 4422 0 
L 3475 0 
L 3181 851 
z
M 2938 1568 
L 2291 3437 
L 1645 1568 
L 2938 1568 
z
" transform="scale(0.015625)"/>
     </defs>
     <use xlink:href="#Poppins-SemiBold-50"/>
     <use xlink:href="#Poppins-SemiBold-48" x="60.799988"/>
     <use xlink:href="#Poppins-SemiBold-4f" x="132.499969"/>
     <use xlink:href="#Poppins-SemiBold-54" x="210.999954"/>
     <use xlink:href="#Poppins-SemiBold-4f" x="268.699951"/>
     <use xlink:href="#Poppins-SemiBold-47" x="347.199936"/>
     <use xlink:href="#Poppins-SemiBold-52" x="423.999924"/>
     <use xlink:href="#Poppins-SemiBold-41" x="488.099915"/>
     <use xlink:href="#Poppins-SemiBold-50" x="559.699905"/>
     <use xlink:href="#Poppins-SemiBold-48" x="620.499893"/>
     <use xlink:href="#Poppins-SemiBold-45" x="692.199875"/>
     <use xlink:href="#Poppins-SemiBold-52" x="745.399872"/>
    </g>
   </g>
  </g>
 </g>
 <defs>
  <clipPath id="pb0ab1bfe92">
   <rect x="21.384" y="73.944" width="677.232" height="768.672"/>
  </clipPath>
 </defs>
</svg>
